<?xml version="1.0" encoding="UTF-8" standalone="no"?>
<svg
   width="64"
   height="64"
   version="1"
   id="svg20"
   sodipodi:docname="org.xfce.xfwm4-tweaks.svg"
   inkscape:version="1.1 (c4e8f9ed74, 2021-05-24)"
   xmlns:inkscape="http://www.inkscape.org/namespaces/inkscape"
   xmlns:sodipodi="http://sodipodi.sourceforge.net/DTD/sodipodi-0.dtd"
   xmlns="http://www.w3.org/2000/svg"
   xmlns:svg="http://www.w3.org/2000/svg">
  <defs
     id="defs24" />
  <sodipodi:namedview
     id="namedview22"
     pagecolor="#505050"
     bordercolor="#eeeeee"
     borderopacity="1"
     inkscape:pageshadow="0"
     inkscape:pageopacity="0"
     inkscape:pagecheckerboard="0"
     showgrid="false"
     inkscape:zoom="13.640625"
     inkscape:cx="32"
     inkscape:cy="31.963345"
     inkscape:window-width="1920"
     inkscape:window-height="1048"
     inkscape:window-x="1360"
     inkscape:window-y="0"
     inkscape:window-maximized="1"
     inkscape:current-layer="svg20" />
  <rect
     style="opacity:0.2"
     width="58"
     height="58"
     x="3"
     y="4"
     rx="17.4"
     ry="17.4"
     id="rect2" />
  <rect
     style="fill:#e4e4e4"
     width="58"
     height="58"
     x="3"
     y="3"
     rx="17.4"
     ry="17.4"
     id="rect4" />
  <path
     style="fill:#e25252;fill-opacity:1"
     d="m 22,14.999999 c -3.865994,0 -7.000001,3.134007 -7,7.000001 0,3.865993 3.134007,7 7,7 H 41.999219 V 14.999999 Z"
     id="path6" />
  <path
     style="fill:#aeaeae"
     d="M 22.000781,35 V 49 H 42 c 3.865993,0 7,-3.134007 7,-7 0,-3.865993 -3.134007,-7 -7,-7 z"
     id="path8" />
  <path
     style="opacity:0.1"
     d="m 22,15 c -3.865993,0 -7,3.134007 -7,7 0.0039,0.146063 0.01236,0.291967 0.02539,0.4375 C 15.318438,18.802477 18.353184,16.001435 22,16 h 20.000781 v -1 z m -7.81e-4,20 v 1 H 42 c 3.666292,0.0036 6.708641,2.835554 6.974609,6.492188 C 48.988847,42.328474 48.997316,42.16431 49,42 49,38.134007 45.865993,35 42,35 Z"
     id="path10" />
  <path
     style="opacity:0.2"
     d="m 42,16 a 7,7 0 0 0 -7,7 7,7 0 0 0 7,7 7,7 0 0 0 7,-7 7,7 0 0 0 -7,-7 z M 22,36 a 7,7 0 0 0 -7,7 7,7 0 0 0 7,7 7,7 0 0 0 7,-7 7,7 0 0 0 -7,-7 z"
     id="path12" />
  <circle
     style="fill:#ffffff"
     cx="42"
     cy="22"
     r="7"
     id="circle14" />
  <circle
     style="fill:#ffffff"
     cx="22"
     cy="42"
     r="7"
     id="circle16" />
  <path
     style="opacity:0.2;fill:#ffffff"
     d="M 20.398438 3 C 10.758838 3 3 10.758838 3 20.398438 L 3 21.398438 C 3 11.758837 10.758838 4 20.398438 4 L 43.601562 4 C 53.241163 4 61 11.758838 61 21.398438 L 61 20.398438 C 61 10.758838 53.241163 3 43.601562 3 L 20.398438 3 z"
     id="path18" />
</svg>
