<?xml version="1.0" encoding="UTF-8" standalone="no"?>
<svg
   width="64"
   height="64"
   version="1"
   id="svg26"
   sodipodi:docname="org.xfce.xfmp.svg"
   inkscape:version="1.1 (c4e8f9ed74, 2021-05-24)"
   xmlns:inkscape="http://www.inkscape.org/namespaces/inkscape"
   xmlns:sodipodi="http://sodipodi.sourceforge.net/DTD/sodipodi-0.dtd"
   xmlns="http://www.w3.org/2000/svg"
   xmlns:svg="http://www.w3.org/2000/svg">
  <defs
     id="defs30" />
  <sodipodi:namedview
     id="namedview28"
     pagecolor="#505050"
     bordercolor="#eeeeee"
     borderopacity="1"
     inkscape:pageshadow="0"
     inkscape:pageopacity="0"
     inkscape:pagecheckerboard="0"
     showgrid="false"
     inkscape:zoom="13.640625"
     inkscape:cx="32"
     inkscape:cy="31.963345"
     inkscape:window-width="1920"
     inkscape:window-height="1048"
     inkscape:window-x="1360"
     inkscape:window-y="0"
     inkscape:window-maximized="1"
     inkscape:current-layer="svg26" />
  <rect
     style="opacity:0.2"
     width="39"
     height="30"
     x="21"
     y="6"
     rx="4.179"
     ry="4.091"
     id="rect2" />
  <circle
     style="opacity:0.2"
     cx="23.5"
     cy="33.5"
     r="19.5"
     id="circle4" />
  <rect
     style="opacity:0.2"
     width="16"
     height="3"
     x="33"
     y="58"
     rx="1.5"
     ry="1.5"
     id="rect6" />
  <rect
     style="fill:#e25252;fill-opacity:1"
     width="39"
     height="30"
     x="21"
     y="5"
     rx="4.179"
     ry="4.091"
     id="rect8" />
  <circle
     style="fill:#4f4f4f"
     cx="23.5"
     cy="32.5"
     r="19.5"
     id="circle10" />
  <circle
     style="fill:#3f3f3f"
     cx="23.5"
     cy="32.5"
     r="15.5"
     id="circle12" />
  <circle
     style="opacity:0.2"
     cx="23.5"
     cy="32.5"
     r="5.5"
     id="circle14" />
  <rect
     style="fill:#3f3f3f"
     width="8"
     height="7"
     x="37"
     y="51.6"
     rx="1.143"
     ry="1.4"
     id="rect16" />
  <rect
     style="opacity:0.2"
     width="28"
     height="22"
     x="27"
     y="35"
     rx="3"
     ry="3"
     id="rect18" />
  <rect
     style="fill:#dd3434;fill-opacity:1"
     width="28"
     height="22"
     x="27"
     y="34"
     rx="3"
     ry="3"
     id="rect20" />
  <rect
     style="fill:#4f4f4f"
     width="16"
     height="3"
     x="33"
     y="57"
     rx="1.5"
     ry="1.5"
     id="rect22" />
  <path
     style="opacity:0.2;fill:#ffffff"
     d="M 25.177734 5 C 22.862806 5 21 6.8254333 21 9.0917969 L 21 10.091797 C 21 7.8254333 22.862806 6 25.177734 6 L 55.822266 6 C 58.137194 6 60 7.8254333 60 10.091797 L 60 9.0917969 C 60 6.8254333 58.137194 5 55.822266 5 L 25.177734 5 z"
     id="path24" />
</svg>
