<?xml version="1.0" encoding="UTF-8" standalone="no"?>
<svg
   width="64"
   height="64"
   version="1"
   id="svg26"
   sodipodi:docname="Thunar.svg"
   inkscape:version="1.1 (c4e8f9ed74, 2021-05-24)"
   xmlns:inkscape="http://www.inkscape.org/namespaces/inkscape"
   xmlns:sodipodi="http://sodipodi.sourceforge.net/DTD/sodipodi-0.dtd"
   xmlns="http://www.w3.org/2000/svg"
   xmlns:svg="http://www.w3.org/2000/svg">
  <defs
     id="defs30" />
  <sodipodi:namedview
     id="namedview28"
     pagecolor="#505050"
     bordercolor="#eeeeee"
     borderopacity="1"
     inkscape:pageshadow="0"
     inkscape:pageopacity="0"
     inkscape:pagecheckerboard="0"
     showgrid="false"
     inkscape:zoom="13.640625"
     inkscape:cx="29.214204"
     inkscape:cy="31.963345"
     inkscape:window-width="1920"
     inkscape:window-height="1048"
     inkscape:window-x="1360"
     inkscape:window-y="0"
     inkscape:window-maximized="1"
     inkscape:current-layer="svg26" />
  <rect
     x="4"
     y="22"
     width="56"
     height="39"
     rx="2.8"
     ry="2.8"
     opacity=".2"
     id="rect2" />
  <rect
     x="13"
     y="3"
     width="38"
     height="34"
     rx="2.125"
     ry="2.125"
     fill="#5294e2"
     id="rect4"
     style="fill:#ecb860;fill-opacity:1" />
  <rect
     x="10"
     y="9"
     width="44"
     height="34"
     rx="2.125"
     ry="2.125"
     fill="#89e058"
     id="rect6"
     style="fill:#eda04b;fill-opacity:1" />
  <rect
     x="7"
     y="15"
     width="50"
     height="34"
     rx="2.125"
     ry="2.125"
     fill="#ffcd54"
     id="rect8"
     style="fill:#eb704f;fill-opacity:1" />
  <rect
     x="4"
     y="21"
     width="56"
     height="39"
     rx="2.8"
     ry="2.8"
     fill="#e25252"
     id="rect10" />
  <rect
     x="22"
     y="38"
     width="20"
     height="5"
     rx="1.429"
     ry="1.25"
     opacity=".2"
     id="rect12" />
  <rect
     x="22"
     y="37"
     width="20"
     height="5"
     rx="1.429"
     ry="1.25"
     fill="#ececec"
     id="rect14" />
  <path
     d="m15.125 3c-1.1772 0-2.125 0.94775-2.125 2.125v1c0-1.1772 0.94775-2.125 2.125-2.125h33.75c1.1772 0 2.125 0.94775 2.125 2.125v-1c0-1.1772-0.94775-2.125-2.125-2.125h-33.75z"
     fill="#fff"
     opacity=".1"
     id="path16" />
  <path
     d="m12.125 9c-1.1772 0-2.125 0.94775-2.125 2.125v1c0-1.1772 0.94775-2.125 2.125-2.125h39.75c1.1772 0 2.125 0.94775 2.125 2.125v-1c0-1.1772-0.94775-2.125-2.125-2.125h-39.75z"
     fill="#fff"
     opacity=".1"
     id="path18" />
  <path
     d="m9.125 15c-1.1772 0-2.125 0.94775-2.125 2.125v1c0-1.1772 0.94775-2.125 2.125-2.125h45.75c1.1772 0 2.125 0.94775 2.125 2.125v-1c0-1.1772-0.94775-2.125-2.125-2.125h-45.75z"
     fill="#fff"
     opacity=".1"
     id="path20" />
  <path
     d="m12.125 8c-1.1772 0-2.125 0.94775-2.125 2.125v1c0-1.1772 0.94775-2.125 2.125-2.125h39.75c1.1772 0 2.125 0.94775 2.125 2.125v-1c0-1.1772-0.94775-2.125-2.125-2.125z"
     opacity=".1"
     id="path22" />
  <path
     d="m9.125 14c-1.1772 0-2.125 0.94775-2.125 2.125v1c0-1.1772 0.94775-2.125 2.125-2.125h45.75c1.1772 0 2.125 0.94775 2.125 2.125v-1c0-1.1772-0.94775-2.125-2.125-2.125z"
     opacity=".1"
     id="path24" />
</svg>
