<?xml version="1.0" encoding="UTF-8" standalone="no"?>
<svg
   width="64"
   height="64"
   version="1.1"
   id="svg20"
   sodipodi:docname="gnome-package.svg"
   inkscape:version="1.1 (c4e8f9ed74, 2021-05-24)"
   xmlns:inkscape="http://www.inkscape.org/namespaces/inkscape"
   xmlns:sodipodi="http://sodipodi.sourceforge.net/DTD/sodipodi-0.dtd"
   xmlns="http://www.w3.org/2000/svg"
   xmlns:svg="http://www.w3.org/2000/svg">
  <defs
     id="defs24" />
  <sodipodi:namedview
     id="namedview22"
     pagecolor="#505050"
     bordercolor="#eeeeee"
     borderopacity="1"
     inkscape:pageshadow="0"
     inkscape:pageopacity="0"
     inkscape:pagecheckerboard="0"
     showgrid="false"
     inkscape:zoom="13.640625"
     inkscape:cx="32"
     inkscape:cy="31.963345"
     inkscape:window-width="1920"
     inkscape:window-height="1048"
     inkscape:window-x="1360"
     inkscape:window-y="0"
     inkscape:window-maximized="1"
     inkscape:current-layer="svg20" />
  <rect
     style="opacity:0.2"
     width="56"
     height="56"
     x="4"
     y="5"
     rx="4.2"
     ry="4.2"
     id="rect2" />
  <rect
     style="fill:#e4e4e4"
     width="56"
     height="56"
     x="4"
     y="4"
     rx="4.2"
     ry="4.2"
     id="rect4" />
  <path
     style="opacity:0.1"
     d="M 14.833984,12.999954 C 13.264318,12.999954 12,14.264272 12,15.833938 V 27.16597 C 12,28.735636 13.264318,29.999954 14.833984,29.999954 H 26.166016 C 27.735682,29.999954 29,28.735636 29,27.16597 V 15.833938 C 29,14.264272 27.735682,12.999954 26.166016,12.999954 Z M 37.833984,12.999954 C 36.264318,12.999954 35,14.264272 35,15.833938 V 27.16597 C 35,28.735636 36.264318,29.999954 37.833984,29.999954 H 49.166016 C 50.735682,29.999954 52,28.735636 52,27.16597 V 15.833938 C 52,14.264272 50.735682,12.999954 49.166016,12.999954 Z M 14.833984,35.999954 C 13.264318,35.999954 12,37.264272 12,38.833938 V 50.16597 C 12,51.735636 13.264318,52.999954 14.833984,52.999954 H 26.166016 C 27.735682,52.999954 29,51.735636 29,50.16597 V 38.833938 C 29,37.264272 27.735682,35.999954 26.166016,35.999954 Z M 43.5,35.999954 C 42.115,35.999954 41,37.274519 41,38.857376 V 43.999954 H 36.214844 A 1.2144579,1.1251395 0 0 0 35.355469,45.919876 L 42.640625,52.669876 A 1.2144579,1.1251395 0 0 0 44.359375,52.669876 L 51.644531,45.919876 A 1.2144579,1.1251395 0 0 0 50.785156,43.999954 H 46 V 38.857376 C 46,37.274519 44.885,35.999954 43.5,35.999954 Z"
     id="path6" />
  <rect
     style="fill:#e25252;fill-opacity:1"
     width="17"
     height="17"
     x="12"
     y="12"
     rx="2.833"
     ry="2.833"
     id="rect8" />
  <rect
     style="fill:#e25252;fill-opacity:1"
     width="17"
     height="17"
     x="35"
     y="12"
     rx="2.833"
     ry="2.833"
     id="rect10" />
  <rect
     style="fill:#e25252;fill-opacity:1"
     width="17"
     height="17"
     x="12"
     y="35"
     rx="2.833"
     ry="2.833"
     id="rect12" />
  <path
     style="fill:#e25252;fill-opacity:1"
     d="M 43.5,35 C 44.885,35 46,36.274286 46,37.857143 V 46.142858 C 46,47.725715 44.885,49 43.5,49 42.115,49 41,47.725715 41,46.142858 V 37.857143 C 41,36.274286 42.115,35 43.5,35 Z"
     id="path14" />
  <path
     style="fill:#e25252;fill-opacity:1"
     d="M 36.21398,43 A 1.2144579,1.1251395 0 0 0 35.355407,44.920456 L 42.641425,51.670619 A 1.2144579,1.1251395 0 0 0 44.358572,51.670619 L 51.644591,44.920456 A 1.2144579,1.1251395 0 0 0 50.786017,43 Z"
     id="path16" />
  <path
     style="fill:#ffffff;opacity:0.2"
     d="M 8.1992188 4 C 5.8724189 4 4 5.8724186 4 8.1992188 L 4 9.1992188 C 4 6.8724186 5.8724189 5 8.1992188 5 L 55.800781 5 C 58.127581 5 60 6.8724186 60 9.1992188 L 60 8.1992188 C 60 5.8724186 58.127581 4 55.800781 4 L 8.1992188 4 z"
     id="path18" />
</svg>
