<?xml version="1.0" encoding="UTF-8" standalone="no"?>
<svg
   width="64"
   height="64"
   version="1"
   id="svg20"
   sodipodi:docname="xfce-terminal.svg"
   inkscape:version="1.1 (c4e8f9ed74, 2021-05-24)"
   xmlns:inkscape="http://www.inkscape.org/namespaces/inkscape"
   xmlns:sodipodi="http://sodipodi.sourceforge.net/DTD/sodipodi-0.dtd"
   xmlns="http://www.w3.org/2000/svg"
   xmlns:svg="http://www.w3.org/2000/svg">
  <defs
     id="defs24" />
  <sodipodi:namedview
     id="namedview22"
     pagecolor="#505050"
     bordercolor="#eeeeee"
     borderopacity="1"
     inkscape:pageshadow="0"
     inkscape:pageopacity="0"
     inkscape:pagecheckerboard="0"
     showgrid="false"
     inkscape:zoom="4.8226892"
     inkscape:cx="39.500783"
     inkscape:cy="35.457396"
     inkscape:window-width="1412"
     inkscape:window-height="858"
     inkscape:window-x="1609"
     inkscape:window-y="79"
     inkscape:window-maximized="0"
     inkscape:current-layer="svg20" />
  <rect
     style="opacity:0.2"
     width="56"
     height="50"
     x="4"
     y="8"
     rx="4.2"
     ry="4.167"
     id="rect2" />
  <rect
     style="fill:#4f4f4f"
     width="56"
     height="50"
     x="4"
     y="7"
     rx="4.2"
     ry="4.167"
     id="rect4" />
  <rect
     style="opacity:0.2"
     width="17"
     height="6"
     x="26"
     y="30"
     rx="1.417"
     ry="1.5"
     id="rect6" />
  <rect
     style="fill:#ffffff"
     width="17"
     height="6"
     x="26"
     y="29"
     rx="1.417"
     ry="1.5"
     id="rect8" />
  <rect
     style="opacity:0.2"
     width="16.763"
     height="5.588"
     x="-17.21"
     y="30.21"
     rx="1.397"
     ry="1.397"
     transform="matrix(0.72400601,-0.68979366,0.72400601,0.68979366,0,0)"
     id="rect10" />
  <rect
     style="fill:#a2a2a2"
     width="16.763"
     height="5.588"
     x="-16.49"
     y="29.48"
     rx="1.397"
     ry="1.397"
     transform="matrix(0.72400601,-0.68979366,0.72400601,0.68979366,0,0)"
     id="rect12" />
  <rect
     style="opacity:0.2"
     width="16.763"
     height="5.588"
     x="19.03"
     y="-6.04"
     rx="1.397"
     ry="1.397"
     transform="matrix(0.72400601,0.68979366,0.72400601,-0.68979366,0,0)"
     id="rect14" />
  <rect
     style="fill:#ffffff"
     width="16.763"
     height="5.588"
     x="18.31"
     y="-5.31"
     rx="1.397"
     ry="1.397"
     transform="matrix(0.72400601,0.68979366,0.72400601,-0.68979366,0,0)"
     id="rect16" />
  <path
     style="opacity:0.1;fill:#ffffff"
     d="M 8.1992188 7 C 5.8724187 7 4 8.8596354 4 11.167969 L 4 12.167969 C 4 9.8596354 5.8724187 8 8.1992188 8 L 55.800781 8 C 58.127581 8 60 9.8596354 60 12.167969 L 60 11.167969 C 60 8.8596354 58.127581 7 55.800781 7 L 8.1992188 7 z"
     id="path18" />
</svg>
