<?xml version="1.0" encoding="UTF-8" standalone="no"?>
<svg
   width="22"
   height="22"
   version="1"
   id="svg22"
   sodipodi:docname="xfce4-calculator-plugin.svg"
   inkscape:version="1.1 (c4e8f9ed74, 2021-05-24)"
   xmlns:inkscape="http://www.inkscape.org/namespaces/inkscape"
   xmlns:sodipodi="http://sodipodi.sourceforge.net/DTD/sodipodi-0.dtd"
   xmlns="http://www.w3.org/2000/svg"
   xmlns:svg="http://www.w3.org/2000/svg">
  <defs
     id="defs26" />
  <sodipodi:namedview
     id="namedview24"
     pagecolor="#505050"
     bordercolor="#eeeeee"
     borderopacity="1"
     inkscape:pageshadow="0"
     inkscape:pageopacity="0"
     inkscape:pagecheckerboard="0"
     showgrid="false"
     inkscape:zoom="39.681818"
     inkscape:cx="6.0355097"
     inkscape:cy="10.9874"
     inkscape:window-width="1920"
     inkscape:window-height="1048"
     inkscape:window-x="1360"
     inkscape:window-y="0"
     inkscape:window-maximized="1"
     inkscape:current-layer="svg22" />
  <path
     style="opacity:0.2"
     d="m 2,1.5 h 18 c 0.554,0 1,0.446 1,1 v 13.450693 l -1.386749,3.817412 c -0.189157,0.520707 -0.808633,1.022121 -1.346687,1.154083 L 15.910632,21.5 H 2 c -0.554,0 -1,-0.446 -1,-1 v -18 c 0,-0.554 0.446,-1 1,-1 z"
     id="path2" />
  <path
     style="fill:#666666"
     d="m 17.303544,20.152542 c 0.267998,-0.484864 2.342224,-0.05909 2.540832,-0.576271 L 21,16.567026 V 11 H 10 v 10 h 6.835131 z"
     id="path4" />
  <path
     style="fill:#8c8c8c"
     d="M 2,21 C 1.446,21 1,20.554 1,20 V 10 h 10 v 11 z"
     id="path6" />
  <path
     style="fill:#a6a6a6"
     d="M 1,11 V 2 C 1,1.446 1.446,1 2,1 h 10 v 10 z"
     id="path8" />
  <path
     style="fill:#595959"
     d="M 11,1 V 11 H 21 V 2 C 21,1.446 20.554,1 20,1 Z"
     id="path10" />
  <path
     style="opacity:0.2;fill:#ffffff"
     d="M 1,2.5 V 2 C 1,1.446 1.446,1 2,1 h 18 c 0.554,0 1,0.446 1,1 v 0.5 c 0,-0.554 -0.446,-1 -1,-1 H 2 c -0.554,0 -1,0.446 -1,1 z"
     id="path12" />
  <circle
     style="fill:#e25252;fill-opacity:1"
     cx="16"
     cy="16"
     r="6"
     id="circle14" />
  <path
     style="fill:#ffffff"
     d="m 14,14 v 1 h 4 v -1 z m 0,2 v 1 h 4 v -1 z"
     id="path16" />
  <path
     style="opacity:0.2"
     d="M 6,5 V 6.5 H 4.5 v 1 H 6 V 9 H 7 V 7.5 h 1.5 v -1 H 7 V 5 Z m 8,1.5 v 1 h 4 v -1 z M 4.7070312,14.085938 4,14.792969 4.3535156,15.146484 5.5,16.292969 4.3535156,17.439453 4,17.792969 4.7070312,18.5 5.0605469,18.146484 6.2070312,17 7.3535156,18.146484 7.7070312,18.5 8.4140625,17.792969 8.0605469,17.439453 6.9140625,16.292969 8.0605469,15.146484 8.4140625,14.792969 7.7070312,14.085938 7.3535156,14.439453 6.2070312,15.585938 5.0605469,14.439453 Z"
     id="path18" />
  <path
     style="fill:#ffffff"
     d="M 6,4.5 V 6 H 4.5 V 7 H 6 V 8.5 H 7 V 7 H 8.5 V 6 H 7 V 4.5 Z M 14,6 v 1 h 4 V 6 Z M 4.7070312,13.585938 4,14.292969 4.3535156,14.646484 5.5,15.792969 4.3535156,16.939453 4,17.292969 4.7070312,18 5.0605469,17.646484 6.2070312,16.5 7.3535156,17.646484 7.7070312,18 8.4140625,17.292969 8.0605469,16.939453 6.9140625,15.792969 8.0605469,14.646484 8.4140625,14.292969 7.7070312,13.585938 7.3535156,13.939453 6.2070312,15.085938 5.0605469,13.939453 Z"
     id="path20" />
</svg>
