<svg width="16" height="16" version="1.1" xmlns="http://www.w3.org/2000/svg">
<defs>
<style id="current-color-scheme" type="text/css">.ColorScheme-Text { color:#dfdfdf; } .ColorScheme-Highlight { color:#4285f4; } .ColorScheme-NeutralText { color:#ff9800; } .ColorScheme-PositiveText { color:#4caf50; } .ColorScheme-NegativeText { color:#f44336; }</style>
</defs>
<path class="ColorScheme-Text" d="m8 1c-2.77 0-5 2.345-5 5.25v3.5c0 2.905 2.23 5.25 5 5.25s5-2.345 5-5.25v-3.5c0-2.905-2.23-5.25-5-5.25zm-0.50195 2a0.50005 0.50005 0 0 1 0.32227 0.11523l3 2.5a0.50005 0.50005 0 0 1-0.033203 0.79492l-2.2715 1.5898 2.2715 1.5898a0.50005 0.50005 0 0 1 0.033203 0.79492l-3 2.5a0.50005 0.50005 0 0 1-0.82031-0.38477v-3.4395l-1.2129 0.84961a0.50066 0.50066 0 0 1-0.57422-0.82031l1.5566-1.0898-1.5566-1.0898a0.50066 0.50066 0 0 1 0.57422-0.82031l1.2129 0.84961v-3.4395a0.50005 0.50005 0 0 1 0.49805-0.5zm0.50195 1.5684v2.5703l1.6758-1.1738-1.6758-1.3965zm0 4.293v2.5703l1.6758-1.3965-1.6758-1.1738z" fill="currentColor" opacity=".3"/>
</svg>
