<?xml version="1.0" encoding="UTF-8" standalone="no"?>
<svg
   width="32"
   height="32"
   version="1.1"
   id="svg20"
   sodipodi:docname="gnome-package.svg"
   inkscape:version="1.1 (c4e8f9ed74, 2021-05-24)"
   xmlns:inkscape="http://www.inkscape.org/namespaces/inkscape"
   xmlns:sodipodi="http://sodipodi.sourceforge.net/DTD/sodipodi-0.dtd"
   xmlns="http://www.w3.org/2000/svg"
   xmlns:svg="http://www.w3.org/2000/svg">
  <defs
     id="defs24" />
  <sodipodi:namedview
     id="namedview22"
     pagecolor="#505050"
     bordercolor="#eeeeee"
     borderopacity="1"
     inkscape:pageshadow="0"
     inkscape:pageopacity="0"
     inkscape:pagecheckerboard="0"
     showgrid="false"
     inkscape:zoom="27.28125"
     inkscape:cx="16"
     inkscape:cy="15.981672"
     inkscape:window-width="1920"
     inkscape:window-height="1048"
     inkscape:window-x="1360"
     inkscape:window-y="0"
     inkscape:window-maximized="1"
     inkscape:current-layer="svg20" />
  <rect
     style="opacity:0.2"
     width="28"
     height="28"
     x="2"
     y="3"
     rx="2.1"
     ry="2.1"
     id="rect2" />
  <rect
     style="fill:#e4e4e4"
     width="28"
     height="28"
     x="2"
     y="2"
     rx="2.1"
     ry="2.1"
     id="rect4" />
  <path
     style="opacity:0.1"
     d="M 7.5,7 C 6.669,7 6,7.669 6,8.5 V 14.5 C 6,15.331 6.669,16 7.5,16 H 13.5 C 14.331,16 15,15.331 15,14.5 V 8.5 C 15,7.669 14.331,7 13.5,7 Z M 18.5,7 C 17.669,7 17,7.669 17,8.5 V 14.5 C 17,15.331 17.669,16 18.5,16 H 24.5 C 25.331,16 26,15.331 26,14.5 V 8.5 C 26,7.669 25.331,7 24.5,7 Z M 7.5,18 C 6.669,18 6,18.669 6,19.5 V 25.5 C 6,26.331 6.669,27 7.5,27 H 13.5 C 14.331,27 15,26.331 15,25.5 V 19.5 C 15,18.669 14.331,18 13.5,18 Z M 21.5,18 C 20.669,18 20,18.636306 20,19.427734 V 22 H 17.642578 A 0.64294835,0.62507757 0 0 0 17.1875,23.066406 L 21.044922,26.816406 A 0.64294835,0.62507757 0 0 0 21.955078,26.816406 L 25.8125,23.066406 A 0.64294835,0.62507757 0 0 0 25.357422,22 H 23 V 19.427734 C 23,18.636306 22.331,18 21.5,18 Z"
     id="path6" />
  <rect
     style="fill:#e25252;fill-opacity:1"
     width="9"
     height="9"
     x="6"
     y="6"
     rx="1.5"
     ry="1.5"
     id="rect8" />
  <rect
     style="fill:#e25252;fill-opacity:1"
     width="9"
     height="9"
     x="17"
     y="6"
     rx="1.5"
     ry="1.5"
     id="rect10" />
  <rect
     style="fill:#e25252;fill-opacity:1"
     width="9"
     height="9"
     x="6"
     y="17"
     rx="1.5"
     ry="1.5"
     id="rect12" />
  <path
     style="fill:#e25252;fill-opacity:1"
     d="M 21.5,17 C 22.331,17 23,17.637143 23,18.428571 V 22.571429 C 23,23.362857 22.331,24 21.5,24 20.669,24 20,23.362857 20,22.571429 V 18.428571 C 20,17.637143 20.669,17 21.5,17 Z"
     id="path14" />
  <path
     style="fill:#e25252;fill-opacity:1"
     d="M 17.642696,21 A 0.64294835,0.62507757 0 0 0 17.188157,22.06692 L 21.045462,25.817011 A 0.64294835,0.62507757 0 0 0 21.954539,25.817011 L 25.811843,22.06692 A 0.64294835,0.62507757 0 0 0 25.357304,21 Z"
     id="path16" />
  <path
     style="fill:#ffffff;opacity:0.2"
     d="M 4.0996094 2 C 2.9362094 2 2 2.9362093 2 4.0996094 L 2 5.0996094 C 2 3.9362093 2.9362094 3 4.0996094 3 L 27.900391 3 C 29.063791 3 30 3.9362093 30 5.0996094 L 30 4.0996094 C 30 2.9362093 29.063791 2 27.900391 2 L 4.0996094 2 z"
     id="path18" />
</svg>
