<?xml version="1.0" encoding="UTF-8" standalone="no"?>
<svg
   width="16"
   height="16"
   version="1"
   id="svg18"
   sodipodi:docname="xfce4-calculator-plugin.svg"
   inkscape:version="1.1 (c4e8f9ed74, 2021-05-24)"
   xmlns:inkscape="http://www.inkscape.org/namespaces/inkscape"
   xmlns:sodipodi="http://sodipodi.sourceforge.net/DTD/sodipodi-0.dtd"
   xmlns="http://www.w3.org/2000/svg"
   xmlns:svg="http://www.w3.org/2000/svg">
  <defs
     id="defs22" />
  <sodipodi:namedview
     id="namedview20"
     pagecolor="#505050"
     bordercolor="#eeeeee"
     borderopacity="1"
     inkscape:pageshadow="0"
     inkscape:pageopacity="0"
     inkscape:pagecheckerboard="0"
     showgrid="false"
     inkscape:zoom="54.5625"
     inkscape:cx="8"
     inkscape:cy="7.9908362"
     inkscape:window-width="1920"
     inkscape:window-height="1048"
     inkscape:window-x="1360"
     inkscape:window-y="0"
     inkscape:window-maximized="1"
     inkscape:current-layer="svg18" />
  <path
     style="fill:#e25252;fill-opacity:1"
     d="M 7,8 H 16 V 15 C 16,16 15,16 15,16 H 7 Z"
     id="path2" />
  <path
     style="fill:#8c8c8c"
     d="M 0,7 V 15.25 C 0,15.666 0.3345,16 0.75,16 H 8 V 7 Z"
     id="path4" />
  <path
     style="fill:#a6a6a6"
     d="M 0.75,0 C 0.3345,0 0,0.3345 0,0.75 V 8 H 9 V 0 Z"
     id="path6" />
  <path
     style="fill:#595959"
     d="M 15.25,0 C 15.666,0 16,0.3345 16,0.75 V 8 H 8 V 0 Z"
     id="path8" />
  <path
     style="fill:#ffffff"
     d="M 10,11 V 12 H 14 V 11 Z M 10,13 V 14 H 14 V 13 Z"
     id="path10" />
  <path
     style="fill:#ffffff"
     d="M 10,4 V 5 H 14 V 4 Z"
     id="path12" />
  <path
     style="fill:#ffffff"
     d="M 4,2 V 4 H 2 V 5 H 4 V 7 H 5 V 5 H 7 V 4 H 5 V 2 Z"
     id="path14" />
  <path
     style="fill:#ffffff;stroke:#ffffff;stroke-width:1px"
     d="M 2,10 6,14 M 6,10 2,14"
     id="path16" />
</svg>
