<?xml version="1.0" encoding="UTF-8" standalone="no"?>
<svg
   width="16"
   height="16"
   version="1"
   id="svg6"
   sodipodi:docname="org.xfce.screenshooter.svg"
   inkscape:version="1.1 (c4e8f9ed74, 2021-05-24)"
   xmlns:inkscape="http://www.inkscape.org/namespaces/inkscape"
   xmlns:sodipodi="http://sodipodi.sourceforge.net/DTD/sodipodi-0.dtd"
   xmlns="http://www.w3.org/2000/svg"
   xmlns:svg="http://www.w3.org/2000/svg">
  <defs
     id="defs10" />
  <sodipodi:namedview
     id="namedview8"
     pagecolor="#505050"
     bordercolor="#eeeeee"
     borderopacity="1"
     inkscape:pageshadow="0"
     inkscape:pageopacity="0"
     inkscape:pagecheckerboard="0"
     showgrid="false"
     inkscape:zoom="54.5625"
     inkscape:cx="8"
     inkscape:cy="7.9908362"
     inkscape:window-width="1920"
     inkscape:window-height="1048"
     inkscape:window-x="1360"
     inkscape:window-y="0"
     inkscape:window-maximized="1"
     inkscape:current-layer="svg6" />
  <circle
     style="fill:#e25252;fill-opacity:1"
     cx="8"
     cy="8"
     r="8"
     id="circle2" />
  <path
     style="fill:#ffffff"
     d="M 8,3 C 6.7785472,3.0024768 5.6002491,3.4519809 4.6875,4.2636719 L 6.2675781,6.9980469 8.5566406,3.0332031 C 8.3718558,3.0117893 8.1860201,3.0007044 8,3 Z M 9.5820312,3.2617188 8,6 h 4.576172 C 12.009971,4.7051059 10.922219,3.7103065 9.5820312,3.2617188 Z M 3.9804688,5.0371094 C 3.3458922,5.8948322 3.0023272,6.9330556 3,8 c 0.00146,0.3360306 0.036799,0.6710577 0.1054688,1 H 6.2675781 Z M 9.7324219,7 12.019531,10.962891 C 12.654108,10.105168 12.997673,9.0669446 13,8 12.998536,7.6639694 12.963201,7.3289423 12.894531,7 Z m 0,2 -2.2910157,3.966797 C 7.6268383,12.988283 7.8133282,12.999368 8,13 c 1.2214528,-0.0025 2.399751,-0.451981 3.3125,-1.263672 z m -6.3085938,1 c 0.5662014,1.294894 1.6539528,2.289693 2.9941407,2.738281 L 8,10 Z"
     id="path4" />
</svg>
