<?xml version="1.0" encoding="UTF-8" standalone="no"?>
<svg
   width="16"
   height="16"
   version="1"
   id="svg6"
   sodipodi:docname="xfce-unknown.svg"
   inkscape:version="1.1 (c4e8f9ed74, 2021-05-24)"
   xmlns:inkscape="http://www.inkscape.org/namespaces/inkscape"
   xmlns:sodipodi="http://sodipodi.sourceforge.net/DTD/sodipodi-0.dtd"
   xmlns="http://www.w3.org/2000/svg"
   xmlns:svg="http://www.w3.org/2000/svg">
  <defs
     id="defs10" />
  <sodipodi:namedview
     id="namedview8"
     pagecolor="#505050"
     bordercolor="#eeeeee"
     borderopacity="1"
     inkscape:pageshadow="0"
     inkscape:pageopacity="0"
     inkscape:pagecheckerboard="0"
     showgrid="false"
     inkscape:zoom="54.5625"
     inkscape:cx="8"
     inkscape:cy="7.9908362"
     inkscape:window-width="1920"
     inkscape:window-height="1048"
     inkscape:window-x="1360"
     inkscape:window-y="0"
     inkscape:window-maximized="1"
     inkscape:current-layer="svg6" />
  <rect
     style="fill:#dc2d2d;fill-opacity:1"
     width="15"
     height="15"
     x="1"
     y="1"
     rx=".803"
     ry=".803"
     id="rect2" />
  <path
     style="fill:#ffffff"
     d="M 9.125,13 H 7.875 V 11.75 H 9.125 Z M 10.419,7.9563 9.8562,8.5313 C 9.4062,8.9875 9.125,9.3625 9.125,10.3 H 7.875 V 9.9875 C 7.875,9.3 8.1562,8.675 8.6063,8.2188 L 9.3812,7.4313 C 9.6125,7.2063 9.75,6.8938 9.75,6.55 9.75,5.8625 9.1875,5.3 8.5,5.3 7.8125,5.3 7.25,6 7.25,7 H 6 C 6,5 7.1188,4.05 8.5,4.05 9.8812,4.05 11,5.1688 11,6.55 11,7.1 10.775,7.6 10.419,7.9563 Z"
     id="path4" />
</svg>
