<?xml version="1.0" encoding="UTF-8" standalone="no"?>
<svg
   width="16"
   height="16"
   version="1.1"
   id="svg8"
   sodipodi:docname="org.xfce.webbrowser.svg"
   inkscape:version="1.1 (c4e8f9ed74, 2021-05-24)"
   xmlns:inkscape="http://www.inkscape.org/namespaces/inkscape"
   xmlns:sodipodi="http://sodipodi.sourceforge.net/DTD/sodipodi-0.dtd"
   xmlns="http://www.w3.org/2000/svg"
   xmlns:svg="http://www.w3.org/2000/svg">
  <defs
     id="defs12" />
  <sodipodi:namedview
     id="namedview10"
     pagecolor="#505050"
     bordercolor="#eeeeee"
     borderopacity="1"
     inkscape:pageshadow="0"
     inkscape:pageopacity="0"
     inkscape:pagecheckerboard="0"
     showgrid="false"
     inkscape:zoom="54.5625"
     inkscape:cx="8"
     inkscape:cy="7.9908362"
     inkscape:window-width="1920"
     inkscape:window-height="1048"
     inkscape:window-x="1360"
     inkscape:window-y="0"
     inkscape:window-maximized="1"
     inkscape:current-layer="svg8" />
  <circle
     style="fill:#e25252;fill-opacity:1"
     cx="8"
     cy="8"
     r="8"
     id="circle2" />
  <circle
     style="fill:#ffffff"
     cx="8"
     cy="8"
     r="4"
     id="circle4" />
  <path
     style="fill:#ef7b7b;fill-opacity:1"
     d="M 11.140625 5 C 9.927855 5 8.4537699 5.2611696 6.9824219 5.7324219 C 5.5110738 6.2036748 4.203721 6.8388331 3.296875 7.5195312 C 1.8255266 8.6252807 1.9158235 9.4817997 2.1015625 9.8945312 C 2.287302 10.307261 2.8927211 11 4.859375 11 C 5.0145886 11 5.17467 10.99673 5.3378906 10.988281 C 4.8570512 10.559597 4.4817032 10.015119 4.2519531 9.4003906 C 4.1195368 9.3556724 4.0479424 9.307122 4.0332031 9.2753906 C 3.9977435 9.199057 4.1257065 8.8763865 4.7285156 8.4238281 C 5.402243 7.9194707 6.4414738 7.4172804 7.5761719 7.0546875 C 8.7108672 6.6893717 9.8818732 6.480469 10.78125 6.4804688 C 11.587146 6.4804688 11.931335 6.6482733 11.966797 6.7246094 C 11.983584 6.7607563 11.960619 6.8540238 11.871094 6.9882812 C 11.95538 7.3115384 12 7.6503432 12 8 C 12 8.355134 11.954047 8.6995309 11.867188 9.0273438 C 12.171811 8.849696 12.454035 8.6674411 12.703125 8.4804688 C 14.174473 7.3747189 14.084178 6.5181998 13.898438 6.1054688 C 13.71634 5.6927378 13.11092 5 11.140625 5 z"
     id="path6" />
</svg>
