<?xml version="1.0" encoding="UTF-8" standalone="no"?>
<svg
   width="16"
   height="16"
   version="1.1"
   id="svg18"
   sodipodi:docname="org.xfce.panel.applicationsmenu.svg"
   inkscape:version="1.1 (c4e8f9ed74, 2021-05-24)"
   xmlns:inkscape="http://www.inkscape.org/namespaces/inkscape"
   xmlns:sodipodi="http://sodipodi.sourceforge.net/DTD/sodipodi-0.dtd"
   xmlns="http://www.w3.org/2000/svg"
   xmlns:svg="http://www.w3.org/2000/svg">
  <defs
     id="defs22" />
  <sodipodi:namedview
     id="namedview20"
     pagecolor="#505050"
     bordercolor="#eeeeee"
     borderopacity="1"
     inkscape:pageshadow="0"
     inkscape:pageopacity="0"
     inkscape:pagecheckerboard="0"
     showgrid="false"
     inkscape:zoom="54.5625"
     inkscape:cx="8"
     inkscape:cy="7.9908362"
     inkscape:window-width="1920"
     inkscape:window-height="1048"
     inkscape:window-x="1360"
     inkscape:window-y="0"
     inkscape:window-maximized="1"
     inkscape:current-layer="svg18" />
  <path
     style="fill:#e4e4e4"
     d="M 1.7179486,0 H 14.282052 C 14.679795,0 15,0.31417142 15,0.70582856 V 13.331076 C 15,13.722771 14.679795,14 14.282052,14 H 6.0555555 L 4.5,16 2.9444444,14 H 1.7179486 C 1.3202051,14 0.99999997,13.722771 0.99999997,13.331076 V 0.70582856 C 0.99999997,0.31417142 1.3202051,0 1.7179486,0 Z"
     id="path2" />
  <rect
     style="fill:#e25252;fill-opacity:1"
     width="14"
     height="4"
     x="1"
     y="5"
     id="rect4" />
  <path
     style="fill:#ffffff"
     d="M 3.3652345,6 C 3.1671355,6 3,6.168111 3,6.366211 V 7.6347655 C 3,7.8328655 3.1671355,8 3.3652345,8 h 1.269531 C 4.8328645,8 5,7.8328655 5,7.6347655 V 6.366211 C 5,6.168111 4.8328645,6 4.6347655,6 Z"
     id="path6" />
  <path
     style="fill:#898989"
     d="M 3.3652345,2 C 3.1671355,2 3,2.168111 3,2.366211 V 3.6347655 C 3,3.8328655 3.1671355,4 3.3652345,4 h 1.269531 C 4.8328645,4 5,3.8328655 5,3.6347655 V 2.366211 C 5,2.168111 4.8328645,2 4.6347655,2 Z"
     id="path8" />
  <path
     style="fill:#ffffff;stroke:#ffffff;stroke-width:2;stroke-linecap:round"
     d="m 8,6.9999 h 4"
     id="path10" />
  <path
     style="fill:none;stroke:#898989;stroke-width:2;stroke-linecap:round"
     d="m 8,2.9999 h 4"
     id="path12" />
  <path
     style="fill:#898989"
     d="M 3.3652345,10 C 3.1671355,10 3,10.16811 3,10.366211 v 1.268555 C 3,11.832865 3.1671355,12 3.3652345,12 h 1.269531 C 4.8328645,12 5,11.832865 5,11.634766 V 10.366211 C 5,10.16811 4.8328645,10 4.6347655,10 Z"
     id="path14" />
  <path
     style="fill:none;stroke:#898989;stroke-width:2;stroke-linecap:round"
     d="m 8,10.9999 h 4"
     id="path16" />
</svg>
