<?xml version="1.0" encoding="UTF-8" standalone="no"?>
<svg
   width="16"
   height="16"
   version="1"
   id="svg8"
   sodipodi:docname="org.xfce.appfinder.svg"
   inkscape:version="1.1 (c4e8f9ed74, 2021-05-24)"
   xmlns:inkscape="http://www.inkscape.org/namespaces/inkscape"
   xmlns:sodipodi="http://sodipodi.sourceforge.net/DTD/sodipodi-0.dtd"
   xmlns="http://www.w3.org/2000/svg"
   xmlns:svg="http://www.w3.org/2000/svg">
  <defs
     id="defs12" />
  <sodipodi:namedview
     id="namedview10"
     pagecolor="#505050"
     bordercolor="#eeeeee"
     borderopacity="1"
     inkscape:pageshadow="0"
     inkscape:pageopacity="0"
     inkscape:pagecheckerboard="0"
     showgrid="false"
     inkscape:zoom="54.5625"
     inkscape:cx="4.3894616"
     inkscape:cy="7.9908362"
     inkscape:window-width="1920"
     inkscape:window-height="1048"
     inkscape:window-x="1360"
     inkscape:window-y="0"
     inkscape:window-maximized="1"
     inkscape:current-layer="svg8" />
  <rect
     style="fill:#e25252;fill-opacity:1"
     width="15"
     height="15"
     x="1"
     y="1"
     rx="7.5"
     ry="7.5"
     id="rect2" />
  <path
     style="fill:#ffffff"
     d="M 9,4.9999 A 3,3 0 0 0 6,7.9999 3,3 0 0 0 9,11 3,3 0 0 0 12,7.9999 3,3 0 0 0 9,4.9999 Z M 9,5.9999 A 2,2 0 0 1 11,7.9999 2,2 0 0 1 9,9.9999 2,2 0 0 1 7,7.9999 2,2 0 0 1 9,5.9999 Z"
     id="path4" />
  <path
     style="fill:none;stroke:#ffffff;stroke-width:1px;stroke-linecap:round"
     d="M 5,12 7,9.9999"
     id="path6" />
</svg>
