<?xml version="1.0" encoding="UTF-8" standalone="no"?>
<svg
   width="16"
   height="16"
   version="1"
   id="svg14"
   sodipodi:docname="org.xfce.taskmanager.svg"
   inkscape:version="1.1 (c4e8f9ed74, 2021-05-24)"
   xmlns:inkscape="http://www.inkscape.org/namespaces/inkscape"
   xmlns:sodipodi="http://sodipodi.sourceforge.net/DTD/sodipodi-0.dtd"
   xmlns="http://www.w3.org/2000/svg"
   xmlns:svg="http://www.w3.org/2000/svg">
  <defs
     id="defs18" />
  <sodipodi:namedview
     id="namedview16"
     pagecolor="#505050"
     bordercolor="#eeeeee"
     borderopacity="1"
     inkscape:pageshadow="0"
     inkscape:pageopacity="0"
     inkscape:pagecheckerboard="0"
     showgrid="false"
     inkscape:zoom="54.5625"
     inkscape:cx="8"
     inkscape:cy="7.9908362"
     inkscape:window-width="1920"
     inkscape:window-height="1048"
     inkscape:window-x="1360"
     inkscape:window-y="0"
     inkscape:window-maximized="1"
     inkscape:current-layer="svg14" />
  <path
     style="fill:#4f4f4f"
     d="m 0.8,0.99999994 c -0.4432,0 -0.8,0.34688886 -0.8,0.77777776 v 9.3333333 3.111111 C 0,14.653111 0.3568,15 0.8,15 H 15.2 C 15.6432,15 16,14.653111 16,14.222222 V 11.111111 1.7777777 C 16,1.3468888 15.6432,0.99999994 15.2,0.99999994 Z"
     id="path2" />
  <rect
     style="opacity:0.2;stroke:#000000;stroke-width:0;stroke-linejoin:round"
     width="16"
     height="1"
     x="0"
     y="6"
     id="rect4" />
  <rect
     style="opacity:0.2;stroke:#000000;stroke-width:0;stroke-linejoin:round"
     width="16"
     height="1"
     x="0"
     y="4"
     id="rect6" />
  <rect
     style="opacity:0.2;stroke:#000000;stroke-width:0;stroke-linejoin:round"
     width="16"
     height="1"
     x="0"
     y="8"
     id="rect8" />
  <path
     style="fill:#e25252;fill-opacity:1"
     d="m 2.8,2.9999999 c 2.8,0 1.866203,5.9720936 4.8,6.0000002 1.8244056,0.017352 3.317647,-1.9999999 5.2,-1.9999999 1.882353,0 3.2,2.1666664 3.2,2.1666664 v 1.9444444 3.111111 C 16,14.653111 15.6432,15 15.2,15 H 0.8 C 0.3568,15 0,14.653111 0,14.222222 V 6.8333333 c 0,0 0.591952,-3.8333334 2.8,-3.8333334 z"
     id="path10" />
  <rect
     style="opacity:0.2;stroke:#000000;stroke-width:0;stroke-linejoin:round"
     width="16"
     height="1"
     x="0"
     y="2"
     id="rect12" />
</svg>
