<svg width="32" height="32" version="1.1" viewBox="0 0 8.4667 8.4667" xmlns="http://www.w3.org/2000/svg">
 <path d="M 0.79375,4.37 A 0.39688,0.39688 0 0 1 0.39688,4.76687 0.39688,0.39688 0 0 1 0,4.37 0.39688,0.39688 0 0 1 0.39688,3.97312 0.39688,0.39688 0 0 1 0.79375,4.37 Z" fill="#dfdfdf" stroke-width=".26458"/>
 <path d="M 4.4979,4.37 A 0.39688,0.39688 0 0 1 4.10102,4.76687 0.39688,0.39688 0 0 1 3.70414,4.37 0.39688,0.39688 0 0 1 4.10102,3.97312 0.39688,0.39688 0 0 1 4.4979,4.37 Z" fill="#dfdfdf" stroke-width=".26458"/>
 <path d="M 8.2021,4.37 A 0.39688,0.39688 0 0 1 7.80522,4.76687 0.39688,0.39688 0 0 1 7.40834,4.37 0.39688,0.39688 0 0 1 7.80522,3.97312 0.39688,0.39688 0 0 1 8.2021,4.37 Z" fill="#dfdfdf" stroke-width=".26458"/>
</svg>
