<svg width="16" height="16" version="1.1" viewBox="0 0 16 16" xmlns="http://www.w3.org/2000/svg">
 <defs>
  <style id="current-color-scheme" type="text/css">.ColorScheme-Text { color:#404040; } .ColorScheme-Highlight { color:#5294e2; }</style>
 </defs>
 <path d="m0 2h6c0-1.1046 0.89543-2 2-2s2 0.89543 2 2h6v2h-1v8h-3.75l1.75 4h-2l-1.75-4h-2.5l-1.75 4h-2l1.75-4h-3.75v-8h-1v-2m3 2v6h10v-6h-10" fill="#dfdfdf"/>
 <g transform="matrix(.4 0 0 .4 -27.6 -238.6)" fill="#dfdfdf">
  <path d="m84 609v10h1c0.17491 1e-3 0.34778-0.0388 0.5-0.125l7-4c0.3107-0.17189 0.46875-0.52345 0.46875-0.875s-0.15805-0.70311-0.46875-0.875l-7-4c-0.15222-0.08625-0.32509-0.12631-0.5-0.125h-0.09375z" color="#000000" fill="#dfdfdf" style="text-indent:0;text-transform:none"/>
 </g>
</svg>
