<?xml version="1.0" encoding="UTF-8" standalone="no"?>
<svg
   width="24"
   height="24"
   version="1"
   id="svg22"
   sodipodi:docname="xfce4-calculator-plugin.svg"
   inkscape:version="1.1 (c4e8f9ed74, 2021-05-24)"
   xmlns:inkscape="http://www.inkscape.org/namespaces/inkscape"
   xmlns:sodipodi="http://sodipodi.sourceforge.net/DTD/sodipodi-0.dtd"
   xmlns="http://www.w3.org/2000/svg"
   xmlns:svg="http://www.w3.org/2000/svg">
  <defs
     id="defs26" />
  <sodipodi:namedview
     id="namedview24"
     pagecolor="#505050"
     bordercolor="#eeeeee"
     borderopacity="1"
     inkscape:pageshadow="0"
     inkscape:pageopacity="0"
     inkscape:pagecheckerboard="0"
     showgrid="false"
     inkscape:zoom="36.375"
     inkscape:cx="6.5841924"
     inkscape:cy="11.986254"
     inkscape:window-width="1920"
     inkscape:window-height="1048"
     inkscape:window-x="1360"
     inkscape:window-y="0"
     inkscape:window-maximized="1"
     inkscape:current-layer="svg22" />
  <path
     style="opacity:0.2"
     d="m 3,2.5 h 18 c 0.554,0 1,0.446 1,1 v 13.450693 l -1.386749,3.817412 c -0.189157,0.520707 -0.808633,1.022121 -1.346687,1.154083 L 16.910632,22.5 H 3 c -0.554,0 -1,-0.446 -1,-1 v -18 c 0,-0.554 0.446,-1 1,-1 z"
     id="path2" />
  <path
     style="fill:#666666"
     d="m 18.303544,21.152542 c 0.267998,-0.484864 2.342224,-0.05909 2.540832,-0.576271 L 22,17.567026 V 12 H 11 v 10 h 6.835131 z"
     id="path4" />
  <path
     style="fill:#8c8c8c"
     d="M 3,22 C 2.446,22 2,21.554 2,21 V 11 H 12 V 22 Z"
     id="path6" />
  <path
     style="fill:#a6a6a6"
     d="M 2,12 V 3 C 2,2.446 2.446,2 3,2 H 13 V 12 Z"
     id="path8" />
  <path
     style="fill:#595959"
     d="M 12,2 V 12 H 22 V 3 C 22,2.446 21.554,2 21,2 Z"
     id="path10" />
  <path
     style="opacity:0.2;fill:#ffffff"
     d="M 2,3.5 V 3 C 2,2.446 2.446,2 3,2 H 21 C 21.554,2 22,2.446 22,3 V 3.5 C 22,2.946 21.554,2.5 21,2.5 H 3 C 2.446,2.5 2,2.946 2,3.5 Z"
     id="path12" />
  <circle
     style="fill:#e25252;fill-opacity:1"
     cx="17"
     cy="17"
     r="6"
     id="circle14" />
  <path
     style="fill:#ffffff"
     d="M 15,15 V 16 H 19 V 15 Z M 15,17 V 18 H 19 V 17 Z"
     id="path16" />
  <path
     style="opacity:0.2"
     d="M 7,6 V 7.5 H 5.5 v 1 H 7 V 10 H 8 V 8.5 h 1.5 v -1 H 8 V 6 Z m 8,1.5 v 1 h 4 v -1 z M 5.7070312,15.085938 5,15.792969 5.3535156,16.146484 6.5,17.292969 5.3535156,18.439453 5,18.792969 5.7070312,19.5 6.0605469,19.146484 7.2070312,18 8.3535156,19.146484 8.7070312,19.5 9.4140625,18.792969 9.0605469,18.439453 7.9140625,17.292969 9.0605469,16.146484 9.4140625,15.792969 8.7070312,15.085938 8.3535156,15.439453 7.2070312,16.585938 6.0605469,15.439453 Z"
     id="path18" />
  <path
     style="fill:#ffffff"
     d="M 7 5.5 L 7 7 L 5.5 7 L 5.5 8 L 7 8 L 7 9.5 L 8 9.5 L 8 8 L 9.5 8 L 9.5 7 L 8 7 L 8 5.5 L 7 5.5 z M 15 7 L 15 8 L 19 8 L 19 7 L 15 7 z M 5.7070312 14.585938 L 5 15.292969 L 5.3535156 15.646484 L 6.5 16.792969 L 5.3535156 17.939453 L 5 18.292969 L 5.7070312 19 L 6.0605469 18.646484 L 7.2070312 17.5 L 8.3535156 18.646484 L 8.7070312 19 L 9.4140625 18.292969 L 9.0605469 17.939453 L 7.9140625 16.792969 L 9.0605469 15.646484 L 9.4140625 15.292969 L 8.7070312 14.585938 L 8.3535156 14.939453 L 7.2070312 16.085938 L 6.0605469 14.939453 L 5.7070312 14.585938 z"
     id="path20" />
</svg>
