<?xml version="1.0" encoding="UTF-8" standalone="no"?>
<svg
   width="48"
   height="48"
   version="1"
   id="svg26"
   sodipodi:docname="Thunar.svg"
   inkscape:version="1.1 (c4e8f9ed74, 2021-05-24)"
   xmlns:inkscape="http://www.inkscape.org/namespaces/inkscape"
   xmlns:sodipodi="http://sodipodi.sourceforge.net/DTD/sodipodi-0.dtd"
   xmlns="http://www.w3.org/2000/svg"
   xmlns:svg="http://www.w3.org/2000/svg">
  <defs
     id="defs30" />
  <sodipodi:namedview
     id="namedview28"
     pagecolor="#505050"
     bordercolor="#eeeeee"
     borderopacity="1"
     inkscape:pageshadow="0"
     inkscape:pageopacity="0"
     inkscape:pagecheckerboard="0"
     showgrid="false"
     inkscape:zoom="9.09375"
     inkscape:cx="27.986254"
     inkscape:cy="19.958763"
     inkscape:window-width="1412"
     inkscape:window-height="945"
     inkscape:window-x="1803"
     inkscape:window-y="60"
     inkscape:window-maximized="0"
     inkscape:current-layer="svg26" />
  <rect
     x="10"
     y="4"
     width="28"
     height="24"
     rx="1.5"
     ry="1.5"
     fill="#5294e2"
     id="rect2"
     style="fill:#ecb860;fill-opacity:1" />
  <rect
     x="8"
     y="8"
     width="32"
     height="24"
     rx="1.5"
     ry="1.5"
     fill="#89e058"
     id="rect4"
     style="fill:#eda04b;fill-opacity:1" />
  <rect
     x="6"
     y="12"
     width="36"
     height="24"
     rx="1.5"
     ry="1.5"
     fill="#ffcd54"
     id="rect6"
     style="fill:#eb704f;fill-opacity:1" />
  <rect
     x="4"
     y="17"
     width="40"
     height="28"
     rx="2"
     ry="2"
     opacity=".2"
     id="rect8" />
  <rect
     x="4"
     y="16"
     width="40"
     height="28"
     rx="2"
     ry="2"
     fill="#e25252"
     id="rect10" />
  <rect
     x="17"
     y="28"
     width="14"
     height="4"
     rx="1"
     ry="1"
     opacity=".2"
     id="rect12" />
  <rect
     x="17"
     y="27"
     width="14"
     height="4"
     rx="1"
     ry="1"
     fill="#ececec"
     id="rect14" />
  <path
     d="m11.5 4c-0.831 0-1.5 0.669-1.5 1.5v1c0-0.831 0.669-1.5 1.5-1.5h25c0.831 0 1.5 0.669 1.5 1.5v-1c0-0.831-0.669-1.5-1.5-1.5h-25z"
     fill="#fff"
     opacity=".1"
     id="path16" />
  <path
     d="m9.5 8c-0.831 0-1.5 0.669-1.5 1.5v1c0-0.831 0.669-1.5 1.5-1.5h29c0.831 0 1.5 0.669 1.5 1.5v-1c0-0.831-0.669-1.5-1.5-1.5h-29z"
     fill="#fff"
     opacity=".1"
     id="path18" />
  <path
     d="m7.5 12c-0.831 0-1.5 0.669-1.5 1.5v1c0-0.831 0.669-1.5 1.5-1.5h33c0.831 0 1.5 0.669 1.5 1.5v-1c0-0.831-0.669-1.5-1.5-1.5h-33z"
     fill="#fff"
     opacity=".1"
     id="path20" />
  <path
     d="m9.5 7c-0.831 0-1.5 0.669-1.5 1.5v1c0-0.831 0.669-1.5 1.5-1.5h29c0.831 0 1.5 0.669 1.5 1.5v-1c0-0.831-0.669-1.5-1.5-1.5z"
     opacity=".1"
     id="path22" />
  <path
     d="m7.5 11c-0.831 0-1.5 0.669-1.5 1.5v1c0-0.831 0.669-1.5 1.5-1.5h33c0.831 0 1.5 0.669 1.5 1.5v-1c0-0.831-0.669-1.5-1.5-1.5z"
     opacity=".1"
     id="path24" />
</svg>
